<?xml version="1.0" standalone="no"?>
<!DOCTYPE svg PUBLIC "-//W3C//DTD SVG 20010904//EN"
 "http://www.w3.org/TR/2001/REC-SVG-20010904/DTD/svg10.dtd">
<svg version="1.0" xmlns="http://www.w3.org/2000/svg"
 width="300.000000pt" height="300.000000pt" viewBox="0 0 300.000000 300.000000"
 preserveAspectRatio="xMidYMid meet">
<metadata>
Created by potrace 1.16, written by Peter Selinger 2001-2019
</metadata>
<g transform="translate(0.000000,300.000000) scale(0.060000,-0.060000)"
fill="#000000" stroke="none">
<path d="M2800 3000 c-151 -32 -279 -163 -296 -305 -9 -81 -14 -84 -38 -20
-96 262 -405 389 -654 268 -126 -62 -240 -209 -257 -332 -4 -28 -11 -51 -15
-51 -5 0 -14 24 -20 53 -25 120 -96 226 -197 293 -89 59 -151 77 -268 77 -162
0 -246 -35 -354 -147 -73 -77 -110 -151 -124 -252 -31 -216 73 -414 267 -510
76 -37 84 -39 175 -39 88 1 102 4 166 35 39 18 75 34 80 34 6 1 10 -12 10 -29
l0 -30 130 0 130 0 5 195 5 195 23 -70 c77 -231 285 -362 522 -327 101 14 175
50 250 118 52 49 120 147 120 174 0 6 -53 10 -145 10 -137 0 -146 -1 -181 -25
-90 -61 -186 -54 -261 21 -74 74 -78 73 220 76 297 3 320 8 367 82 l25 39 5
-244 5 -244 130 0 130 0 5 315 c6 350 6 352 75 384 46 22 86 20 126 -7 67 -44
69 -57 69 -394 l0 -303 130 0 130 0 0 305 c0 329 1 334 54 384 19 18 41 26 80
29 50 4 56 2 90 -29 24 -22 40 -48 46 -74 5 -22 10 -169 10 -327 l0 -288 130
0 130 0 2 292 3 292 30 -59 c42 -82 92 -117 222 -157 112 -34 141 -57 128 -98
-12 -37 -50 -53 -124 -52 -67 0 -75 3 -228 69 -10 4 -13 -24 -13 -121 l0 -127
43 -19 c113 -49 309 -53 408 -8 115 53 171 132 177 253 9 169 -66 269 -245
325 -105 32 -125 46 -121 83 2 22 11 35 28 44 41 21 141 16 215 -11 36 -13 65
-23 65 -22 0 0 2 52 5 113 l4 113 -28 14 c-48 25 -188 49 -245 42 -174 -23
-301 -125 -313 -253 -8 -79 -13 -82 -37 -17 -61 166 -198 264 -370 264 -89 0
-165 -25 -231 -76 -25 -19 -48 -34 -51 -34 -3 0 -24 16 -47 35 -73 63 -206 95
-307 75z m-1628 -307 c57 -41 98 -118 98 -184 0 -127 -97 -229 -216 -229 -119
1 -224 105 -224 225 0 76 47 160 114 201 36 22 51 25 113 22 61 -3 78 -8 115
-35z"/>
</g>
</svg>
