<?xml version="1.0" standalone="no"?>
<!DOCTYPE svg PUBLIC "-//W3C//DTD SVG 20010904//EN"
 "http://www.w3.org/TR/2001/REC-SVG-20010904/DTD/svg10.dtd">
<svg version="1.0" xmlns="http://www.w3.org/2000/svg"
 width="393.000000pt" height="130.000000pt" viewBox="0 0 393.000000 130.000000"
 preserveAspectRatio="xMidYMid meet">
<metadata>
Created by potrace 1.16, written by Peter Selinger 2001-2019
</metadata>
<g transform="translate(0.000000,130.000000) scale(0.100000,-0.100000)"
fill="#000000" stroke="none">
<path d="M2210 1196 c-107 -29 -188 -94 -235 -186 -36 -71 -45 -166 -45 -487
l0 -263 125 0 124 0 3 313 c3 353 2 346 86 388 55 27 101 19 149 -25 48 -44
52 -73 52 -403 l1 -273 119 0 120 0 3 308 3 309 28 36 c85 112 231 77 257 -62
5 -29 10 -175 10 -322 l0 -269 121 0 120 0 -2 302 c-1 192 -6 320 -14 353 -61
260 -368 377 -584 222 -25 -18 -51 -36 -57 -40 -6 -4 -24 5 -40 19 -94 82
-226 113 -344 80z"/>
<path d="M3515 1197 c-89 -24 -158 -71 -199 -136 -30 -47 -38 -83 -37 -161 2
-156 62 -223 247 -276 89 -25 134 -55 134 -90 0 -9 -13 -29 -29 -45 -27 -27
-35 -29 -104 -29 -74 0 -115 11 -188 50 -20 11 -40 20 -43 20 -4 0 -5 -55 -4
-122 l3 -122 60 -20 c47 -15 88 -20 190 -20 128 -1 132 0 197 32 111 54 158
133 158 263 0 113 -42 196 -123 243 -23 13 -80 37 -126 51 -46 15 -92 36 -102
46 -30 30 -24 66 14 89 55 34 145 25 270 -25 16 -7 17 1 15 106 l-3 113 -60
19 c-77 24 -205 30 -270 14z"/>
<path d="M355 1176 c-156 -39 -293 -175 -335 -335 -16 -61 -14 -189 3 -248 33
-111 90 -193 179 -259 82 -60 169 -87 268 -83 68 4 88 9 159 45 45 23 84 38
87 33 3 -5 3 -23 -1 -39 l-7 -30 127 0 126 0 -1 228 c-3 353 -29 453 -142 564
-63 62 -133 103 -213 124 -61 17 -183 17 -250 0z m211 -245 c52 -24 110 -83
126 -130 7 -20 12 -64 12 -97 0 -52 -5 -69 -34 -113 -60 -94 -172 -135 -264
-97 -81 34 -156 138 -156 217 0 162 175 284 316 220z"/>
<path d="M1319 1176 c-98 -27 -206 -107 -265 -196 -30 -45 -64 -143 -65 -189
0 -20 -4 -45 -8 -56 -4 -11 -4 -33 0 -50 4 -16 13 -55 20 -85 17 -79 50 -140
115 -209 100 -108 241 -155 403 -134 100 13 178 50 249 117 44 42 112 138 112
160 0 3 -63 6 -140 6 -136 0 -142 -1 -181 -27 -57 -38 -148 -44 -206 -14 -46
23 -103 86 -103 113 0 17 18 18 253 18 265 0 308 6 354 44 85 72 51 246 -73
376 -62 65 -125 103 -209 125 -70 18 -192 18 -256 1z m184 -227 c64 -18 155
-115 130 -140 -5 -5 -95 -8 -199 -7 -221 3 -227 6 -147 86 66 66 132 85 216
61z"/>
</g>
</svg>
